# xmcd
#
# Track frame offsets: 
#        150
#        26756
#        50670
#        70797
#        92174
#        107293
#        127455
#        155826
#        173255
#        192124
#        213969
#        238159
#
# Disc length: 3383 seconds
#
# Revision: 0
# Processed by: cddbd v1.5.2PL0 Copyright (c) Steve Scherf et al.
# Submitted via: ExactAudioCopy v0.95b4
#
DISCID=a50d350c
DTITLE=Keith Urban - Love, Pain and The Whole Crazy Thing
DYEAR=2006
DGENRE=Country
TTITLE0=Once In A Lifetime
TTITLE1=Shine
TTITLE2=I Told You So
TTITLE3=I Can't Stop Loving You
TTITLE4=Won't Let You Down
TTITLE5=Faster Car
TTITLE6=Stupid Boy
TTITLE7=Used To The Pain
TTITLE8=Tu Compania
TTITLE9=God Made Woman
TTITLE10=Everybody
TTITLE11=Got It Right This Time
EXTD=
EXTT0=
EXTT1=
EXTT2=
EXTT3=
EXTT4=
EXTT5=
EXTT6=
EXTT7=
EXTT8=
EXTT9=
EXTT10=
EXTT11=
PLAYORDER=
